<?xml version="1.0" standalone="no"?>
<!DOCTYPE svg PUBLIC "-//W3C//DTD SVG 20010904//EN"
 "http://www.w3.org/TR/2001/REC-SVG-20010904/DTD/svg10.dtd">
<svg version="1.0" xmlns="http://www.w3.org/2000/svg"
 width="300.000000pt" height="296.000000pt" viewBox="0 0 300.000000 296.000000"
 preserveAspectRatio="xMidYMid meet">
<metadata>
Created by potrace 1.10, written by Peter Selinger 2001-2011
</metadata>
<g transform="translate(0.000000,296.000000) scale(0.100000,-0.100000)"
fill="#000000" stroke="none">
<path d="M1178 2900 c-38 -3 -70 -8 -72 -11 -2 -2 -1 -19 1 -37 l5 -32 97 6
c53 3 102 7 109 10 6 2 12 19 12 39 0 35 0 35 -42 34 -24 -1 -73 -5 -110 -9z
m59 -27 c-15 -2 -25 -9 -22 -14 4 -5 -13 -9 -37 -8 l-43 1 35 13 c19 7 49 13
65 13 l30 -1 -28 -4z m58 -3 c3 -5 1 -10 -4 -10 -6 0 -11 5 -11 10 0 6 2 10 4
10 3 0 8 -4 11 -10z"/>
<path d="M1370 2872 l0 -39 78 -7 c42 -3 89 -9 103 -12 23 -5 28 -1 38 27 14
41 7 46 -79 54 -36 3 -82 8 -102 11 l-38 6 0 -40z m125 -7 c22 -2 47 -3 55 -4
9 -1 11 -4 4 -11 -7 -7 -33 -7 -75 -1 -35 5 -67 7 -71 4 -10 -5 -10 11 -1 20
4 4 16 4 27 1 12 -4 39 -8 61 -9z"/>
<path d="M926 2844 c-54 -19 -101 -35 -102 -37 -9 -8 19 -68 30 -65 25 8 191
61 194 63 1 1 -4 18 -10 37 l-13 35 -99 -33z m79 -24 c-3 -5 -16 -10 -28 -10
-12 0 -35 -7 -51 -15 -28 -15 -75 -21 -63 -8 11 10 100 40 125 42 13 0 21 -3
17 -9z"/>
<path d="M1050 2870 c0 -5 6 -10 14 -10 8 0 18 5 21 10 3 6 -3 10 -14 10 -12
0 -21 -4 -21 -10z"/>
<path d="M1615 2860 c3 -5 13 -10 21 -10 8 0 14 5 14 10 0 6 -9 10 -21 10 -11
0 -17 -4 -14 -10z"/>
<path d="M1660 2842 c0 -11 -3 -27 -6 -35 -4 -11 6 -19 33 -27 21 -7 64 -23
97 -37 32 -13 59 -23 60 -21 27 42 36 58 36 61 0 5 -155 64 -192 73 -24 5 -28
3 -28 -14z m75 -32 c11 -5 37 -14 58 -20 43 -13 51 -35 10 -27 -43 9 -123 45
-123 56 0 10 15 8 55 -9z"/>
<path d="M736 2763 c-96 -48 -199 -120 -287 -202 -73 -68 -149 -161 -131 -161
14 0 33 26 25 33 -13 14 13 7 36 -9 22 -16 24 -14 96 57 l74 73 -19 21 c-23
25 -25 35 -6 35 7 0 19 7 26 15 12 14 15 13 35 -5 l22 -20 86 52 c61 38 84 57
80 68 -16 43 -16 53 0 47 14 -5 45 18 36 27 -2 3 -35 -11 -73 -31z m4 -40 c-1
-14 -129 -93 -135 -84 -3 5 23 27 57 49 64 42 78 48 78 35z m-230 -168 c0 -3
-8 -13 -18 -22 -11 -10 -38 -36 -60 -58 -57 -53 -53 -26 4 35 40 43 74 63 74
45z"/>
<path d="M1890 2761 c0 -12 28 -22 35 -12 3 5 -2 12 -11 15 -21 8 -24 8 -24
-3z"/>
<path d="M1926 2721 c-9 -16 -16 -32 -16 -35 0 -2 21 -16 48 -32 26 -15 64
-41 86 -57 l39 -31 19 24 c18 22 21 23 29 7 6 -9 17 -17 26 -17 30 0 -78 91
-169 144 l-47 27 -15 -30z m103 -58 c56 -35 73 -53 52 -53 -10 0 -131 79 -131
86 0 11 24 1 79 -33z"/>
<path d="M2162 2550 l-24 -32 63 -66 c35 -37 66 -71 70 -76 4 -4 18 -1 30 8
30 21 36 20 42 -4 3 -11 10 -20 17 -20 19 0 -18 52 -99 140 l-76 82 -23 -32z
m81 -69 c26 -27 47 -57 47 -67 0 -13 -16 -1 -55 41 -30 33 -54 63 -55 68 -1
17 19 4 63 -42z"/>
<path d="M1666 2410 c-14 -4 -16 -9 -8 -14 9 -5 12 -56 12 -172 0 -124 3 -164
13 -164 9 0 11 33 9 137 -4 222 -4 221 -26 213z"/>
<path d="M1220 2333 l0 -77 -20 22 c-58 62 -145 -31 -126 -133 15 -76 84 -118
128 -78 17 15 18 15 18 0 0 -10 4 -17 9 -17 6 0 9 76 9 180 0 100 -4 180 -9
180 -5 0 -9 -35 -9 -77z m-21 -79 c30 -38 30 -145 1 -174 -26 -26 -43 -25 -76
3 -22 19 -28 34 -31 78 -7 99 57 156 106 93z"/>
<path d="M254 2328 c-23 -35 -48 -77 -57 -95 l-17 -32 32 -15 c17 -9 32 -16
34 -16 1 0 17 26 34 58 18 31 43 71 56 89 l24 32 -29 20 c-16 12 -31 21 -33
21 -2 0 -22 -28 -44 -62z m66 17 c0 -3 -11 -23 -25 -45 -14 -22 -25 -42 -25
-45 0 -9 -34 -45 -42 -45 -9 0 12 44 49 103 20 32 43 49 43 32z"/>
<path d="M2349 2330 l-27 -20 44 -78 c24 -42 47 -83 51 -90 7 -11 13 -12 38
-1 17 7 31 14 33 15 7 5 -98 194 -108 194 -3 0 -17 -10 -31 -20z m64 -83 c39
-67 43 -77 28 -77 -8 0 -81 120 -81 134 0 19 20 -2 53 -57z"/>
<path d="M583 2289 c-12 -4 -28 -17 -34 -28 -12 -19 -13 -18 -32 5 -23 29 -62
31 -79 4 -7 -11 -17 -20 -22 -20 -4 0 -6 9 -3 20 3 13 0 20 -10 20 -10 0 -13
-6 -9 -16 3 -9 6 -61 6 -116 0 -117 9 -127 14 -15 3 87 22 127 61 127 35 0 45
-27 45 -124 0 -51 4 -86 10 -86 6 0 10 35 10 85 0 78 2 88 25 110 28 29 38 31
59 9 16 -16 22 -67 17 -156 -2 -30 1 -48 8 -48 7 0 11 34 11 98 0 82 -3 102
-17 114 -28 24 -37 26 -60 17z"/>
<path d="M811 2266 c-84 -83 -21 -247 80 -206 82 35 93 171 17 224 -33 24 -59
19 -97 -18z m103 -17 c62 -73 1 -213 -75 -175 -64 31 -54 186 13 199 13 2 26
5 30 6 3 0 18 -13 32 -30z"/>
<path d="M1858 2270 c-47 -39 -59 -98 -32 -155 33 -70 95 -83 144 -30 43 46
36 153 -12 192 -31 27 -62 24 -100 -7z m96 -21 c57 -67 10 -198 -66 -182 -28
7 -50 52 -50 104 0 56 21 96 54 102 13 2 26 5 30 6 3 0 18 -13 32 -30z"/>
<path d="M2133 2276 c-24 -21 -26 -27 -18 -52 8 -21 23 -33 63 -49 77 -29 94
-77 37 -103 -30 -14 -51 -7 -87 26 l-28 26 0 -23 c0 -12 4 -20 9 -17 4 3 16
-3 26 -14 32 -36 108 -19 126 27 14 37 -14 73 -71 93 -51 18 -70 42 -54 68 18
28 68 27 92 -2 25 -32 30 -33 24 -1 -2 14 -8 23 -12 20 -4 -3 -13 2 -20 10
-18 22 -55 18 -87 -9z"/>
<path d="M1358 2284 c8 -4 12 -31 12 -85 0 -91 17 -135 55 -145 27 -7 75 18
75 38 0 6 -8 4 -18 -5 -26 -24 -69 -22 -83 4 -6 13 -10 56 -7 108 3 86 3 86
-22 88 -14 1 -19 0 -12 -3z"/>
<path d="M1498 2281 c10 -6 13 -31 12 -92 -3 -118 -2 -129 13 -129 9 0 11 28
9 115 -3 111 -4 115 -25 115 -16 0 -18 -3 -9 -9z"/>
<path d="M158 2153 c-31 -70 -47 -118 -68 -193 -22 -83 -25 -104 -10 -95 5 3
10 17 10 31 0 23 3 24 35 18 27 -5 35 -3 35 9 0 13 36 125 54 167 5 11 -3 19
-26 28 -30 11 -31 13 -15 30 18 20 23 42 9 42 -5 0 -15 -17 -24 -37z m22 -68
c0 -17 -43 -136 -51 -141 -15 -9 -10 28 11 86 11 30 20 56 20 57 0 2 5 3 10 3
6 0 10 -2 10 -5z"/>
<path d="M2480 2126 c0 -15 18 -31 26 -23 7 7 -7 37 -17 37 -5 0 -9 -6 -9 -14z"/>
<path d="M2480 2077 c-14 -6 -26 -12 -28 -12 -1 -1 7 -27 17 -58 11 -31 23
-77 27 -102 6 -41 9 -46 28 -41 11 3 29 6 39 6 9 0 17 6 17 13 0 23 -60 207
-68 206 -4 0 -18 -5 -32 -12z m41 -79 c7 -29 12 -55 11 -58 0 -3 4 -10 9 -16
6 -7 3 -16 -8 -25 -15 -12 -16 -12 -10 3 3 9 2 18 -3 20 -5 2 -11 20 -12 40
-2 21 -6 38 -10 38 -5 0 -8 11 -8 25 0 43 17 27 31 -27z"/>
<path d="M2567 1853 c-3 -5 -2 -15 4 -23 14 -23 11 -28 -22 -35 -31 -7 -32 -7
-25 -59 3 -28 6 -75 6 -103 0 -52 1 -53 30 -53 27 0 29 -2 24 -30 -5 -20 -3
-30 6 -30 9 0 11 36 8 153 -3 137 -15 206 -31 180z m3 -165 c0 -99 -13 -94
-20 8 -4 55 -2 74 8 74 8 0 12 -23 12 -82z"/>
<path d="M55 1764 c-9 -106 -1 -298 15 -374 7 -30 13 -56 14 -57 1 -1 18 2 37
7 l36 10 -13 63 c-8 34 -14 82 -14 106 l0 43 -33 -6 c-32 -6 -32 -6 -32 34 0
36 2 40 26 40 25 0 26 2 36 103 6 56 10 103 9 104 0 0 -17 4 -38 8 l-36 7 -7
-88z m51 0 c-3 -26 -6 -60 -6 -75 0 -16 -4 -29 -10 -29 -11 0 -14 108 -4 134
13 35 27 15 20 -30z m4 -290 c3 -27 3 -63 0 -79 -5 -25 -7 -19 -18 36 -15 83
-15 102 1 97 6 -3 14 -27 17 -54z"/>
<path d="M767 1823 c-3 -5 -4 -79 -2 -165 1 -87 -2 -158 -6 -158 -5 0 -9 -4
-9 -9 0 -5 31 -8 69 -7 85 3 117 21 127 72 9 47 -8 82 -49 99 -17 8 -26 14
-19 15 23 0 52 40 52 71 0 43 -15 65 -51 78 -36 13 -106 15 -112 4z m125 -30
c18 -16 24 -68 10 -89 -13 -19 -50 -34 -86 -34 l-36 0 0 63 c0 35 3 67 7 70
13 14 87 7 105 -10z m17 -164 c29 -27 27 -74 -4 -105 -21 -21 -33 -25 -71 -22
l-46 3 -4 68 c-3 37 -3 71 0 75 9 15 104 0 125 -19z"/>
<path d="M1159 1801 c-56 -56 -28 -127 60 -151 23 -6 51 -20 62 -31 44 -44 6
-119 -61 -119 -35 0 -90 41 -90 67 0 7 -4 13 -8 13 -5 0 -8 -16 -8 -35 1 -28
4 -34 19 -29 9 3 17 1 17 -4 0 -17 59 -35 93 -28 59 11 90 70 67 125 -12 30
-41 48 -113 71 -39 12 -52 36 -45 81 7 53 99 61 124 11 19 -38 24 -37 23 4 0
21 -3 34 -5 27 -4 -8 -14 -6 -37 8 -44 26 -64 24 -98 -10z"/>
<path d="M1506 1822 c-8 -15 -1 -342 8 -339 5 2 8 40 8 85 l-1 82 31 0 c43 0
66 -24 84 -87 17 -59 36 -83 65 -83 26 0 24 9 -5 20 -19 7 -29 23 -40 61 -9
29 -24 61 -33 72 -15 17 -16 21 -4 25 32 11 61 51 61 85 0 53 -37 81 -111 84
-32 1 -60 -1 -63 -5z m136 -29 c25 -23 24 -77 -4 -103 -16 -14 -35 -20 -70
-20 l-48 0 0 63 c0 35 3 67 7 70 13 14 96 7 115 -10z"/>
<path d="M1875 1660 l0 -170 67 0 c36 0 73 -3 82 -6 9 -3 16 -1 16 5 0 7 -25
11 -70 11 l-70 0 -2 88 c-1 48 -1 122 0 165 2 58 0 77 -10 77 -10 0 -13 -37
-13 -170z"/>
<path d="M2520 1488 c0 -25 -25 -144 -35 -169 -5 -12 1 -18 24 -22 28 -6 45
-27 21 -27 -5 0 -10 -9 -10 -20 0 -39 19 -19 35 37 12 42 45 202 45 221 0 1
-18 2 -40 2 -35 0 -40 -3 -40 -22z m36 -57 c-7 -70 -16 -99 -32 -105 -10 -4
-12 -2 -8 6 4 7 9 26 11 43 9 67 19 105 29 105 3 0 2 -22 0 -49z"/>
<path d="M1123 1459 c-70 -14 -93 -42 -146 -174 l-33 -80 -89 -36 c-103 -41
-149 -80 -165 -140 -14 -50 -9 -70 36 -170 19 -42 34 -82 34 -88 0 -6 -14 -45
-32 -85 -23 -55 -35 -72 -48 -69 -10 3 -21 -5 -29 -23 l-12 -27 -20 22 c-11
11 -25 21 -31 21 -6 0 -3 12 7 27 18 26 17 27 -11 51 -16 13 -50 44 -76 69
l-48 45 -27 -22 -27 -21 -8 20 c-4 12 -15 21 -25 21 -27 -1 149 -166 239 -225
57 -37 78 -57 82 -77 10 -50 59 -92 149 -126 46 -18 91 -40 99 -49 8 -10 28
-52 43 -93 20 -52 40 -86 67 -112 37 -36 43 -38 102 -38 50 0 79 7 133 31 37
17 79 31 93 31 14 0 56 -13 94 -31 88 -40 177 -43 222 -9 43 33 51 45 85 136
35 92 46 102 135 133 90 32 104 40 137 89 11 16 17 44 17 81 0 50 3 59 26 74
48 31 195 179 252 253 l56 74 -24 19 c-35 27 -44 24 -74 -21 -15 -23 -43 -59
-63 -80 l-35 -40 23 -19 23 -19 -24 -25 -25 -26 -23 21 -22 22 -43 -40 c-75
-71 -74 -71 -93 -27 -23 53 -20 78 15 153 25 52 31 78 31 130 0 91 -29 125
-142 170 -46 18 -92 42 -104 54 -11 12 -33 53 -48 93 -32 83 -56 117 -99 139
-51 27 -113 21 -201 -20 -43 -20 -87 -36 -98 -36 -10 0 -46 14 -79 30 -69 36
-130 49 -176 39z m109 -37 c7 -7 20 -12 30 -12 10 0 18 -4 18 -9 0 -5 16 -12
35 -15 19 -4 35 -11 35 -15 0 -19 69 -3 133 31 20 10 37 17 37 13 0 -3 13 1
29 9 27 15 101 18 101 4 0 -3 13 -11 29 -16 19 -7 35 -24 48 -54 40 -85 53
-116 53 -123 0 -18 44 -65 61 -65 10 0 19 -4 19 -10 0 -5 11 -10 25 -10 14 0
25 -4 25 -10 0 -5 11 -10 24 -10 13 0 43 -18 70 -41 44 -39 46 -43 46 -95 0
-39 -8 -71 -32 -121 -37 -80 -40 -123 -12 -178 19 -37 64 -62 64 -36 0 6 4 11
9 11 6 0 25 14 43 30 18 17 36 30 40 30 19 0 4 -22 -39 -57 -74 -59 -82 -72
-83 -130 0 -73 -28 -103 -135 -144 -46 -17 -91 -39 -100 -49 -9 -9 -31 -55
-50 -101 -45 -110 -77 -139 -148 -139 -39 0 -76 10 -135 35 -91 40 -97 39
-199 -7 -44 -20 -79 -28 -118 -28 -73 0 -104 28 -145 135 -18 44 -41 90 -52
102 -12 13 -58 37 -102 54 -95 36 -112 50 -136 105 -10 23 -23 45 -29 48 -16
10 -13 36 4 36 17 0 73 112 82 163 4 25 -4 55 -31 116 -24 54 -36 97 -36 127
0 40 5 49 47 89 26 25 55 45 65 45 10 0 26 4 36 9 9 5 33 16 53 25 47 20 60
38 94 126 31 80 52 109 99 133 35 17 110 17 128 -1z m1083 -551 c-26 -33 -52
-58 -56 -55 -12 7 2 30 45 78 20 22 36 44 36 50 0 6 4 6 11 -1 9 -9 -1 -27
-36 -72z m-1799 -158 c29 -27 54 -51 54 -55 0 -11 -28 -10 -32 1 -1 4 -24 26
-50 49 -39 33 -50 52 -31 52 3 0 29 -21 59 -47z"/>
<path d="M1125 1400 c-33 -13 -61 -51 -84 -113 -43 -118 -61 -136 -176 -176
-64 -22 -110 -63 -121 -107 -5 -18 4 -50 30 -109 46 -107 48 -150 7 -239 -40
-87 -45 -119 -26 -156 19 -38 44 -53 130 -85 38 -13 81 -36 95 -50 14 -14 41
-64 60 -112 55 -136 92 -150 234 -90 46 21 95 37 108 37 13 0 50 -12 83 -26
124 -53 132 -55 168 -40 44 18 59 39 97 134 18 47 43 91 57 102 13 10 56 31
96 46 139 51 161 102 103 233 -46 104 -46 139 -1 237 19 42 35 88 35 102 0 47
-36 88 -98 112 -151 59 -151 59 -196 177 -51 134 -99 155 -225 97 -69 -31 -88
-36 -134 -32 -31 2 -76 16 -103 30 -55 28 -109 39 -139 28z m131 -56 c103 -48
144 -48 251 0 45 20 90 36 100 36 37 0 62 -31 94 -116 18 -48 45 -98 61 -114
16 -16 65 -43 114 -61 127 -48 137 -73 79 -206 -19 -45 -35 -98 -35 -118 0
-20 15 -69 35 -112 58 -125 46 -159 -70 -202 -122 -46 -140 -63 -180 -171 -31
-83 -63 -120 -102 -120 -14 0 -60 16 -103 35 -44 20 -94 35 -115 35 -20 0 -73
-16 -118 -35 -133 -58 -158 -48 -206 79 -18 48 -45 98 -60 114 -15 15 -67 42
-114 60 -129 49 -139 73 -82 196 47 101 47 148 0 249 -19 42 -35 87 -35 100 0
43 41 72 154 107 58 19 93 56 125 137 45 109 51 120 75 131 34 17 49 14 132
-24z"/>
<path d="M987 1072 c-10 -10 -17 -24 -17 -31 0 -6 31 -43 70 -80 l70 -68 -40
-28 c-95 -66 -187 -229 -178 -317 l3 -33 482 -3 c556 -3 515 -10 487 94 -26
102 -111 228 -178 263 -14 8 -26 17 -26 21 0 4 29 36 65 72 36 35 65 72 65 81
0 20 -27 47 -46 47 -9 0 -50 -36 -93 -80 l-78 -80 -39 17 c-53 24 -252 24
-304 1 l-35 -15 -81 78 c-45 44 -88 79 -96 79 -8 0 -22 -8 -31 -18z m124 -97
l76 -75 48 14 c80 25 164 29 240 13 39 -9 78 -18 87 -22 12 -5 39 15 97 70
101 97 130 95 38 -3 -37 -39 -67 -74 -67 -78 0 -4 33 -39 73 -78 83 -81 137
-174 137 -238 l0 -38 -461 0 -462 0 6 45 c12 85 65 168 170 263 21 19 37 40
37 47 0 8 -27 43 -60 78 -33 36 -60 67 -60 71 0 20 32 -3 101 -69z"/>
<path d="M1281 900 c-44 -11 -152 -66 -183 -94 -30 -26 -88 -101 -111 -143
-18 -33 -23 -78 -9 -87 5 -3 184 -6 399 -8 419 -3 431 -2 418 46 -12 41 -38
96 -47 96 -4 0 -8 5 -8 11 0 17 -79 93 -120 115 -19 10 -43 26 -54 34 -10 8
-19 14 -20 12 0 -2 -14 2 -31 8 -38 15 -189 22 -234 10z m224 -35 c65 -18 164
-82 199 -128 26 -34 76 -125 76 -139 0 -5 -180 -8 -400 -8 -220 0 -400 2 -400
5 0 23 67 129 106 168 110 109 264 146 419 102z"/>
<path d="M1166 721 c-25 -27 -17 -72 15 -90 24 -13 29 -13 53 2 47 31 27 107
-28 107 -13 0 -31 -9 -40 -19z m62 -43 c3 -22 -1 -28 -15 -28 -31 0 -46 16
-38 39 10 33 49 24 53 -11z"/>
<path d="M1517 722 c-26 -28 -21 -69 9 -89 24 -15 29 -15 53 -2 16 9 27 25 29
43 7 55 -56 87 -91 48z m61 -44 c3 -23 -1 -28 -17 -28 -22 0 -46 34 -36 51 4
5 17 9 28 7 16 -2 23 -11 25 -30z"/>
<path d="M90 1309 c0 -24 54 -167 91 -242 38 -77 107 -185 149 -235 l20 -24
30 22 31 22 -34 41 c-18 23 -46 63 -62 89 -27 43 -30 45 -49 32 -25 -17 -36
-18 -36 -2 0 6 -7 19 -16 29 -15 17 -15 19 10 30 32 15 32 18 2 77 -13 26 -29
66 -37 90 -12 41 -13 42 -46 36 -26 -5 -34 -3 -33 7 4 25 0 39 -10 39 -5 0
-10 -5 -10 -11z m79 -94 c1 6 11 -15 22 -45 10 -30 18 -62 16 -70 -6 -22 -57
96 -56 128 l1 27 8 -25 c4 -14 9 -20 9 -15z m121 -237 c0 -6 18 -35 40 -64 42
-56 46 -64 30 -64 -5 0 -28 25 -50 55 -39 53 -50 85 -30 85 6 0 10 -5 10 -12z"/>
<path d="M2445 1191 c-10 -25 -28 -66 -41 -90 -13 -24 -24 -46 -24 -50 0 -4
13 -14 29 -24 l29 -17 19 33 c21 36 73 154 73 166 0 4 -15 12 -34 18 l-34 11
-17 -47z m45 -3 c0 -23 -59 -138 -71 -138 -13 0 -12 1 26 88 27 58 45 79 45
50z"/>
<path d="M2407 993 c-4 -3 -7 -13 -7 -21 0 -12 3 -12 15 -2 8 7 15 16 15 21 0
11 -14 12 -23 2z"/>
</g>
</svg>
